 <svg  version="1.0" xmlns="http://www.w3.org/2000/svg"  width="900.000000pt" height="900.000000pt" viewBox="0 0 900.000000 900.000000"  preserveAspectRatio="xMidYMid meet">  <g transform="translate(0.000000,900.000000) scale(0.100000,-0.100000)" fill="#009966" stroke="none"> <path d="M3317 8152 c-15 -17 -41 -72 -57 -122 -5 -14 -18 -50 -30 -80 -95 -249 -143 -476 -161 -767 -23 -381 27 -746 143 -1033 27 -66 28 -83 8 -128 -11 -24 -20 -51 -20 -58 0 -7 -6 -28 -14 -46 -8 -18 -22 -62 -31 -98 -9 -36 -22 -87 -30 -115 -21 -81 -37 -147 -45 -190 -29 -154 -114 -387 -181 -490 -10 -16 -22 -37 -26 -45 -41 -88 -250 -316 -375 -410 -37 -27 -70 -50 -72 -50 -3 0 -24 -12 -48 -27 -72 -47 -79 -50 -218 -119 -74 -36 -155 -76 -180 -89 -44 -21 -45 -23 -43 -66 8 -159 198 -397 428 -535 80 -49 206 -105 270 -120 11 -3 43 -11 70 -19 135 -37 226 -45 537 -45 265 0 320 -3 407 -20 55 -11 109 -24 118 -28 100 -50 113 -60 154 -116 54 -73 32 -184 -53 -282 -96 -110 -336 -246 -533 -304 -16 -5 -61 -18 -100 -30 -38 -11 -92 -25 -120 -30 -27 -5 -66 -14 -85 -20 -19 -5 -51 -10 -71 -10 -75 0 -135 -43 -76 -54 12 -2 56 -11 97 -20 104 -23 451 -23 570 0 118 22 271 60 345 86 17 5 41 12 55 15 14 3 34 12 45 19 11 8 27 14 36 14 10 0 30 6 46 14 15 7 44 20 63 29 466 202 792 474 1029 858 58 94 67 102 151 134 86 33 235 104 285 136 17 10 37 22 45 26 43 20 207 152 278 225 75 76 169 192 185 228 4 8 16 29 26 45 25 39 83 157 106 215 9 25 22 56 27 70 6 14 14 41 19 60 4 19 12 53 18 75 37 145 43 200 47 399 3 116 7 212 9 214 5 5 119 -109 178 -179 70 -81 164 -226 238 -366 61 -116 149 -336 169 -423 4 -19 12 -48 18 -65 5 -16 17 -66 27 -110 9 -44 21 -102 27 -128 28 -132 43 -418 29 -547 -15 -127 -20 -148 -32 -129 -5 8 -9 25 -9 39 0 53 -95 306 -152 403 -15 26 -28 51 -28 55 -1 16 -40 53 -50 47 -6 -4 -10 -71 -10 -178 0 -171 -18 -359 -46 -487 -8 -36 -14 -74 -14 -84 0 -11 -7 -44 -16 -75 -8 -31 -22 -81 -31 -111 -69 -248 -204 -480 -386 -664 -91 -93 -300 -266 -321 -266 -3 0 -24 -12 -48 -27 -72 -47 -79 -51 -188 -103 -58 -28 -118 -58 -133 -66 -16 -8 -37 -14 -48 -14 -11 0 -31 -7 -44 -16 -13 -9 -29 -13 -35 -9 -15 9 -2 25 20 25 10 0 20 7 24 15 3 8 10 15 15 15 17 0 207 133 236 165 6 7 30 27 55 45 72 54 236 218 316 316 41 50 74 94 74 97 0 3 19 34 43 69 23 35 48 74 55 86 19 34 113 223 128 260 8 17 20 47 28 65 56 134 94 249 120 372 37 170 45 231 57 410 10 163 9 218 -5 385 -16 183 -39 346 -52 359 -11 11 -24 -25 -24 -69 0 -186 -60 -549 -124 -755 -7 -22 -21 -67 -31 -100 -9 -33 -24 -78 -32 -100 -38 -101 -47 -122 -61 -155 -8 -19 -22 -51 -30 -70 -8 -19 -19 -42 -24 -50 -4 -8 -11 -22 -14 -30 -17 -42 -92 -184 -125 -235 -10 -16 -22 -37 -26 -45 -8 -18 -134 -203 -143 -210 -3 -3 -28 -34 -55 -70 -73 -97 -286 -305 -400 -391 -155 -117 -313 -211 -462 -276 -115 -49 -159 -65 -235 -87 -248 -70 -311 -79 -576 -79 -170 1 -243 5 -292 16 -36 9 -81 18 -100 21 -61 8 -272 69 -355 103 -40 16 -283 135 -320 156 -43 26 -222 146 -236 158 -8 8 -45 39 -84 70 -187 151 -393 382 -535 599 -92 140 -98 151 -107 170 -4 8 -18 33 -31 54 -33 53 -105 198 -132 266 -12 30 -28 69 -35 85 -16 38 -34 91 -45 130 -5 17 -13 44 -19 60 -5 17 -17 57 -25 90 -8 33 -20 80 -27 105 -7 25 -16 65 -20 90 -4 25 -12 72 -18 105 -38 221 -52 509 -31 685 33 283 43 341 97 530 40 143 65 216 89 263 8 16 14 33 14 38 0 10 56 135 71 159 5 8 12 22 15 30 3 8 9 22 14 30 5 8 21 38 36 65 15 28 44 76 65 108 22 32 39 61 39 63 0 3 41 60 92 127 86 114 326 367 348 367 6 0 10 48 10 120 0 77 -4 120 -10 120 -29 0 -268 -195 -390 -318 -140 -141 -213 -232 -316 -387 -75 -114 -67 -100 -147 -262 -72 -145 -84 -172 -111 -240 -34 -90 -44 -120 -61 -178 -10 -33 -24 -78 -30 -100 -24 -76 -69 -304 -86 -435 -20 -157 -23 -589 -5 -715 9 -58 16 -122 16 -143 0 -34 16 -124 42 -232 6 -25 14 -63 18 -85 8 -44 32 -130 51 -185 30 -87 66 -184 86 -230 8 -19 21 -48 28 -65 35 -81 128 -261 166 -320 10 -16 22 -37 26 -45 7 -16 59 -92 144 -211 200 -282 500 -567 799 -761 152 -98 444 -248 483 -248 7 0 21 -6 32 -14 11 -7 31 -16 45 -19 14 -3 59 -17 100 -31 132 -45 167 -56 185 -56 10 0 41 -6 69 -14 69 -20 187 -42 326 -60 135 -19 576 -22 661 -6 30 6 86 15 124 20 39 5 90 14 115 21 134 33 242 64 300 84 147 53 280 111 403 174 148 77 152 80 222 126 33 22 68 44 77 50 175 108 391 292 585 500 94 100 287 353 316 415 4 8 16 29 26 45 29 45 181 350 181 363 0 6 6 26 14 44 140 329 174 753 90 1128 -8 36 -14 74 -14 84 0 11 -6 42 -14 70 -8 28 -22 80 -31 116 -10 36 -22 76 -27 90 -6 14 -14 39 -18 55 -9 35 -28 87 -46 130 -7 17 -20 50 -30 75 -50 128 -165 361 -225 455 -10 17 -22 37 -26 45 -4 8 -27 44 -52 80 -24 36 -58 85 -74 110 -48 72 -178 230 -197 240 -11 6 -35 6 -62 1 -56 -11 -136 -30 -172 -41 -50 -16 -55 -2 -26 80 7 19 18 51 25 70 16 45 41 165 55 263 14 93 14 336 0 392 -5 22 -10 57 -10 78 0 64 -63 310 -109 429 -5 12 -17 43 -26 68 -27 70 -68 156 -189 397 -161 322 -171 342 -183 354 -17 17 -104 -51 -301 -236 -297 -278 -498 -552 -612 -835 -12 -30 -29 -73 -39 -94 l-17 -39 -188 -1 c-210 -2 -197 -6 -235 79 -20 45 -76 156 -105 210 -72 134 -228 329 -400 500 -174 174 -303 275 -502 397 -78 48 -81 48 -97 30z m257 -564 c105 -96 261 -279 339 -397 35 -53 67 -103 70 -111 4 -8 16 -28 27 -45 11 -16 22 -37 26 -45 3 -8 10 -22 15 -30 22 -36 39 -85 35 -97 -3 -7 -18 -18 -33 -25 -35 -14 -101 -46 -128 -61 -90 -52 -133 -80 -220 -145 -55 -41 -105 -80 -110 -86 -33 -36 -125 -116 -134 -116 -6 0 -13 17 -16 38 -3 20 -12 66 -20 102 -50 240 -50 629 1 860 8 36 14 73 14 84 0 10 7 41 17 70 9 28 18 57 19 64 6 21 17 14 98 -60z m2200 -63 c36 -76 48 -101 80 -177 7 -18 21 -50 30 -71 9 -21 16 -44 16 -52 0 -8 6 -29 14 -47 18 -42 40 -121 63 -223 24 -111 25 -523 1 -635 -9 -41 -22 -102 -28 -135 -22 -113 -46 -199 -80 -285 -33 -82 -45 -128 -36 -137 4 -4 85 -10 179 -13 l172 -5 3 -90 c9 -222 -63 -485 -191 -700 -137 -230 -391 -464 -652 -600 -27 -14 -57 -30 -65 -35 -23 -13 -139 -65 -190 -85 -25 -9 -56 -21 -68 -26 -63 -25 -209 -69 -307 -92 -92 -23 -335 -72 -400 -81 -40 -5 -140 -25 -195 -38 -25 -6 -63 -14 -85 -18 -45 -8 -114 -25 -195 -47 -30 -8 -80 -22 -110 -30 -30 -8 -76 -21 -101 -29 -26 -8 -54 -14 -64 -14 -10 0 -38 -6 -64 -14 -127 -40 -370 -76 -508 -76 -114 0 -278 21 -354 45 -26 8 -54 15 -63 15 -8 0 -32 7 -53 16 -94 40 -109 47 -123 55 -8 5 -25 13 -37 19 -28 12 -30 46 -4 59 10 6 28 27 40 46 26 45 30 145 6 165 -14 12 -14 15 1 32 10 10 29 24 43 31 49 25 126 68 156 88 17 10 37 22 45 26 65 33 192 134 280 222 128 129 245 287 299 406 64 140 78 175 91 220 4 17 13 44 18 60 12 33 32 106 58 205 42 165 68 236 139 380 77 155 116 210 245 337 119 119 274 214 465 286 141 54 388 107 493 107 l52 0 0 -100 c0 -72 4 -102 13 -104 6 -2 39 -11 72 -19 33 -8 80 -20 105 -27 25 -6 61 -15 80 -20 50 -12 123 -40 134 -51 6 -5 18 -9 28 -9 23 0 24 33 2 91 -26 68 -26 390 0 479 28 98 99 280 121 310 6 8 21 35 35 60 56 106 135 211 285 377 45 50 63 42 109 -52z"/> <path d="M4535 5701 c-273 -48 -438 -147 -586 -352 -67 -94 -70 -97 -114 -189 -20 -41 -41 -83 -46 -92 -13 -25 -32 -79 -95 -270 -16 -49 -12 -77 10 -59 40 34 267 76 452 85 297 14 504 71 669 185 71 49 198 174 265 261 60 79 142 196 153 220 4 8 16 29 27 45 58 90 62 125 13 125 -15 0 -59 6 -98 14 -112 24 -342 46 -450 45 -55 0 -145 -9 -200 -18z"/> </g> </svg> 